<?xml version="1.0" standalone="no"?>
<!DOCTYPE svg PUBLIC "-//W3C//DTD SVG 20010904//EN"
 "http://www.w3.org/TR/2001/REC-SVG-20010904/DTD/svg10.dtd">
<svg version="1.0" xmlns="http://www.w3.org/2000/svg"
 width="266" height="352" viewBox="615 498 266 352"
 preserveAspectRatio="xMidYMid meet">

<g transform="translate(0.000000,1350.000000) scale(0.100000,-0.100000)"
fill="#ff0d97" stroke="none">
<path d="M8148 8338 c-80 -21 -30 -59 75 -57 77 1 111 10 115 31 6 31 -112 47 -190 26z"/>
<path d="M8085 8228 c-10 -55 -48 -93 -116 -112 -30 -8 -80 -22 -113 -31 -68 -20 -96 -44 -96 -83 0 -16 41 -129 91 -252 126 -310 127 -324 21 -498 -87 -144 -120 -288 -101 -447 15 -128 32 -187 60 -207 30 -23 136 -45 256 -54 l93 -7 0 -457 c0 -393 -2 -459 -15 -463 -8 -4 -28 -33 -44 -65 -17 -33 -44 -72 -62 -86 -77 -65 -396 -202 -539 -233 -70 -15 -131 -18 -340 -17 -314 0 -436 15 -830 99 -82 18 131 -53 255 -85 225 -57 349 -73 570 -74 216 0 332 15 529 69 153 42 395 144 463 196 29 21 55 39 58 39 4 0 25 -15 48 -33 66 -53 106 -74 204 -106 83 -28 171 -40 186 -25 15 15 -10 35 -62 50 -132 39 -206 90 -260 183 -22 37 -47 73 -55 81 -14 11 -16 68 -16 469 l0 457 123 12 c146 14 222 34 241 65 31 49 49 176 43 307 -6 148 -24 209 -98 331 -111 183 -111 186 35 538 42 101 76 197 76 212 0 40 -28 64 -96 84 -33 9 -83 23 -113 31 -68 19 -106 57 -116 112 -6 38 -9 42 -28 35 -12 -4 -62 -8 -112 -8 -49 0 -100 4 -112 8 -19 7 -22 3 -28 -35z"/>
</g>
</svg>
