<?xml version="1.0" standalone="no"?>
<!DOCTYPE svg PUBLIC "-//W3C//DTD SVG 20010904//EN"
 "http://www.w3.org/TR/2001/REC-SVG-20010904/DTD/svg10.dtd">
<svg version="1.0" xmlns="http://www.w3.org/2000/svg"
 width="700" height="340" viewBox="189 504 700 340"
 preserveAspectRatio="xMidYMid meet">

<g transform="translate(0.000000,1350.000000) scale(0.100000,-0.100000)"
fill="#ffffff" stroke="none">
<path d="M8148 8338 c-80 -21 -30 -59 75 -57 77 1 111 10 115 31 6 31 -112 47
-190 26z"/>
<path d="M8085 8228 c-10 -55 -48 -93 -116 -112 -30 -8 -80 -22 -113 -31 -68
-20 -96 -44 -96 -83 0 -16 41 -129 91 -252 126 -310 127 -324 21 -498 -87
-144 -120 -288 -101 -447 15 -128 32 -187 60 -207 30 -23 136 -45 256 -54 l93
-7 0 -457 c0 -393 -2 -459 -15 -463 -8 -4 -28 -33 -44 -65 -17 -33 -44 -72
-62 -86 -77 -65 -396 -202 -539 -233 -70 -15 -131 -18 -340 -17 -314 0 -436
15 -830 99 -82 18 131 -53 255 -85 225 -57 349 -73 570 -74 216 0 332 15 529
69 153 42 395 144 463 196 29 21 55 39 58 39 4 0 25 -15 48 -33 66 -53 106
-74 204 -106 83 -28 171 -40 186 -25 15 15 -10 35 -62 50 -132 39 -206 90
-260 183 -22 37 -47 73 -55 81 -14 11 -16 68 -16 469 l0 457 123 12 c146 14
222 34 241 65 31 49 49 176 43 307 -6 148 -24 209 -98 331 -111 183 -111 186
35 538 42 101 76 197 76 212 0 40 -28 64 -96 84 -33 9 -83 23 -113 31 -68 19
-106 57 -116 112 -6 38 -9 42 -28 35 -12 -4 -62 -8 -112 -8 -49 0 -100 4 -112
8 -19 7 -22 3 -28 -35z"/>
<path d="M2486 7469 c-156 -38 -293 -135 -346 -244 -34 -69 -35 -191 -3 -251
45 -85 153 -148 275 -161 44 -4 58 -10 58 -22 0 -9 -20 -110 -45 -226 -25
-115 -45 -213 -45 -216 0 -4 -27 -17 -60 -29 -125 -47 -201 -139 -202 -243 -1
-94 51 -164 157 -214 51 -23 76 -28 166 -31 183 -7 337 47 495 172 88 69 195
195 244 287 17 32 34 60 38 63 4 2 39 7 79 11 l72 7 6 -29 c29 -142 72 -200
169 -228 105 -31 204 3 298 102 58 61 68 66 68 30 0 -34 32 -87 61 -102 40
-21 108 -19 146 5 38 23 88 87 114 148 10 23 20 42 21 42 2 0 2 -20 0 -44 -6
-67 22 -149 60 -181 27 -23 39 -26 78 -23 56 6 94 32 137 96 40 58 107 234
140 367 14 55 28 103 32 107 8 9 126 34 206 44 l60 7 -46 -54 c-164 -194 -275
-351 -285 -404 -11 -59 4 -67 112 -59 66 5 102 3 124 -6 16 -7 30 -15 30 -19
-1 -3 -36 -29 -78 -58 -171 -115 -301 -252 -343 -363 -31 -81 -24 -183 15
-235 38 -50 104 -78 179 -78 165 2 324 172 382 408 22 87 22 214 1 280 -9 28
-16 53 -16 57 0 3 28 27 63 52 l62 47 7 -40 c30 -175 190 -191 297 -30 l41 61
0 -60 c0 -52 3 -63 22 -76 12 -9 35 -16 50 -16 45 0 73 37 103 135 74 249 143
407 205 475 68 74 69 58 14 -240 -46 -243 -53 -335 -30 -395 40 -104 160 -99
246 9 17 22 45 69 62 105 l31 65 20 -40 c38 -76 97 -119 180 -130 89 -12 203
44 276 136 l39 50 7 -75 c12 -128 63 -198 143 -197 80 1 132 48 190 171 l35
73 18 -34 c10 -19 36 -51 58 -71 67 -60 150 -72 248 -35 107 40 222 185 266
335 15 51 15 53 -4 64 -25 13 -23 16 -43 -47 -19 -60 -75 -156 -114 -198 -42
-44 -122 -86 -165 -86 -69 0 -127 81 -127 178 0 21 5 32 15 32 32 0 128 44
173 79 93 74 133 205 88 289 -49 93 -204 77 -304 -32 -71 -77 -122 -213 -122
-323 0 -97 -118 -313 -171 -313 -61 0 -45 335 37 779 l17 93 56 -6 c31 -3 128
-9 216 -12 178 -8 291 7 374 49 82 41 98 122 32 161 -41 23 -65 8 -37 -23 27
-30 16 -54 -39 -81 -45 -22 -65 -25 -195 -28 -94 -3 -187 2 -264 12 -65 8
-120 17 -121 18 -2 2 7 47 18 100 23 113 20 123 -48 133 -67 11 -79 -1 -100
-102 -10 -48 -21 -92 -25 -96 -4 -4 -58 -1 -121 9 -121 17 -283 15 -350 -5
-112 -34 -184 -149 -135 -216 21 -30 46 -12 46 33 0 76 78 112 243 112 105 0
266 -17 287 -30 10 -6 6 -49 -19 -196 -17 -104 -36 -234 -42 -289 -13 -117
-31 -157 -101 -231 -85 -90 -175 -118 -233 -72 -36 28 -65 92 -65 145 0 39 2
42 33 48 115 26 224 115 251 206 21 68 20 95 -4 147 -47 103 -202 93 -306 -20
-69 -75 -123 -219 -124 -328 0 -83 -135 -320 -174 -307 -23 7 -17 126 14 294
67 357 52 453 -70 453 -47 0 -55 -4 -100 -46 -54 -50 -116 -162 -175 -311 -19
-48 -34 -83 -35 -78 0 6 11 75 25 155 30 177 30 177 3 185 -30 10 -99 8 -110
-3 -13 -13 -23 -60 -47 -220 -18 -115 -26 -144 -62 -213 -64 -122 -122 -169
-149 -120 -21 40 -5 210 39 423 11 54 18 104 15 113 -7 17 -64 30 -99 21 -14
-4 -30 -17 -35 -31 -9 -23 -48 -212 -67 -319 -8 -46 -12 -51 -91 -109 l-83
-60 -41 23 c-23 13 -65 26 -95 29 l-54 6 39 60 c21 33 95 133 165 222 69 89
129 173 133 187 15 60 -32 68 -256 41 -134 -15 -221 -37 -239 -58 -6 -8 -15
-45 -21 -84 -32 -228 -173 -534 -223 -484 -28 28 -5 257 49 500 17 77 22 117
15 124 -16 16 -104 20 -122 5 -9 -7 -28 -62 -44 -123 -49 -193 -125 -380 -178
-437 -30 -33 -39 -34 -63 -11 -14 15 -16 32 -11 123 3 58 17 164 32 235 15 72
28 137 29 145 1 9 -15 20 -41 28 -35 11 -47 11 -70 0 -33 -16 -43 -47 -78
-237 -26 -137 -39 -169 -102 -248 -37 -46 -121 -93 -167 -93 -72 0 -124 63
-129 156 l-2 47 50 17 c124 43 201 106 229 187 44 128 -8 232 -115 233 -139 0
-265 -133 -301 -320 -7 -36 -17 -68 -23 -72 -10 -7 -115 -11 -115 -5 0 2 11
37 25 77 55 163 76 396 46 520 -53 220 -215 383 -437 440 -104 27 -287 26
-398 -1z m360 -65 c260 -67 382 -304 330 -642 -15 -98 -75 -302 -97 -328 -5
-7 -55 -14 -122 -18 -61 -4 -179 -14 -260 -22 -82 -9 -150 -14 -152 -12 -6 5
84 421 93 428 4 4 36 14 72 24 76 20 90 30 83 56 -6 23 -26 25 -92 9 -24 -5
-45 -8 -47 -6 -2 2 15 84 38 182 l42 178 -23 18 c-27 22 -103 26 -119 7 -5 -7
-30 -100 -55 -207 -25 -106 -49 -196 -52 -199 -10 -10 -138 19 -184 42 -214
110 -131 375 147 472 131 45 270 52 398 18z m900 -687 c40 -84 -58 -211 -195
-252 -23 -7 -24 -6 -17 36 11 68 65 175 108 214 50 46 83 46 104 2z m2816 16
c42 -38 11 -146 -61 -202 -40 -32 -116 -70 -139 -71 -19 0 -6 62 29 138 33 73
59 109 97 134 34 22 50 23 74 1z m892 -5 c51 -72 -28 -199 -158 -253 -50 -21
-57 -19 -50 13 24 114 73 207 127 241 41 27 62 26 81 -1z m-4424 -386 c0 -5
-22 -40 -49 -78 -58 -83 -187 -206 -264 -252 -167 -100 -368 -115 -475 -35
-98 73 -70 193 59 259 27 13 51 24 54 24 2 0 2 -27 -1 -59 -7 -59 -6 -59 25
-76 18 -9 49 -15 69 -13 l37 3 20 95 20 95 80 12 c153 23 425 39 425 25z
m1900 -323 c0 -195 -90 -388 -213 -459 -67 -38 -107 -39 -148 -2 -27 24 -33
37 -37 84 -7 87 27 150 141 263 84 84 231 204 250 205 4 0 7 -41 7 -91z"/>
<path d="M5292 6994 c-81 -57 -10 -179 83 -144 38 14 54 38 55 78 0 67 -81
106 -138 66z"/>
<path d="M7394 6015 c-31 -27 -35 -34 -20 -35 11 0 33 12 48 27 l28 27 28 -27
c15 -15 37 -27 48 -27 15 1 11 8 -21 35 -22 19 -47 35 -56 35 -9 0 -33 -16
-55 -35z"/>
<path d="M5166 5898 c-83 -222 -126 -343 -126 -350 0 -4 6 -8 13 -8 7 0 24 32
37 70 l25 71 85 -3 85 -3 25 -67 c17 -47 30 -68 41 -68 14 0 8 24 -38 143 -30
78 -64 168 -76 200 -26 71 -48 76 -71 15z m67 -83 c14 -38 29 -78 33 -87 5
-16 -2 -18 -66 -18 -53 0 -71 3 -68 13 3 6 18 49 34 94 15 45 31 79 34 75 4
-4 18 -38 33 -77z"/>
<path d="M5510 5925 c0 -12 14 -15 65 -15 l65 0 0 -185 c0 -158 2 -185 15
-185 13 0 15 27 15 185 l0 185 65 0 c51 0 65 3 65 15 0 13 -23 15 -145 15
-122 0 -145 -2 -145 -15z"/>
<path d="M6030 5740 l0 -200 124 0 c101 0 125 3 130 15 5 13 -12 15 -110 15
l-115 0 3 83 3 82 103 3 c56 1 102 7 102 12 0 5 -46 11 -102 12 l-103 3 -3 73
-3 72 111 0 c91 0 110 3 110 15 0 13 -21 15 -125 15 l-125 0 0 -200z"/>
<path d="M6530 5740 l0 -201 122 3 c86 2 123 7 126 16 3 9 -22 12 -102 12
l-106 0 0 185 c0 178 -1 185 -20 185 -19 0 -20 -7 -20 -200z"/>
<path d="M7010 5740 c0 -171 2 -200 15 -200 13 0 15 29 15 200 0 171 -2 200
-15 200 -13 0 -15 -29 -15 -200z"/>
<path d="M7330 5740 l0 -200 125 0 c104 0 125 2 125 15 0 12 -19 15 -110 15
l-110 0 0 85 0 85 100 0 c60 0 100 4 100 10 0 6 -40 10 -100 10 l-100 0 0 75
0 75 105 0 c87 0 105 3 105 15 0 13 -20 15 -120 15 l-120 0 0 -200z"/>
</g>
</svg>
